<svg width="91" height="68" viewBox="0 0 91 68" fill="none" xmlns="http://www.w3.org/2000/svg">
<path d="M3.68 66V56.08H0.24V55.088H8.304V56.08H4.864V66H3.68ZM10.1469 66V58.512H11.2349V66H10.1469ZM10.6909 57.056C10.4455 57.056 10.2375 56.9707 10.0669 56.8C9.90688 56.6293 9.82688 56.4213 9.82688 56.176C9.82688 55.9413 9.90688 55.744 10.0669 55.584C10.2375 55.4133 10.4455 55.328 10.6909 55.328C10.9255 55.328 11.1282 55.4133 11.2989 55.584C11.4695 55.744 11.5549 55.9467 11.5549 56.192C11.5549 56.4267 11.4695 56.6293 11.2989 56.8C11.1282 56.9707 10.9255 57.056 10.6909 57.056ZM17.0681 58.256C17.7401 58.256 18.3481 58.4213 18.8921 58.752C19.4361 59.0827 19.8628 59.536 20.1721 60.112C20.4815 60.6773 20.6361 61.312 20.6361 62.016C20.6361 62.2187 20.6308 62.3733 20.6201 62.48H14.4601C14.5028 63.248 14.7535 63.904 15.2121 64.448C15.6708 64.992 16.2948 65.264 17.0841 65.264C17.7241 65.264 18.2521 65.1467 18.6681 64.912C19.0948 64.6667 19.4361 64.3307 19.6921 63.904L20.5561 64.48C20.2041 65.0347 19.7401 65.472 19.1641 65.792C18.5881 66.1013 17.9055 66.256 17.1161 66.256C16.3908 66.256 15.7455 66.0853 15.1801 65.744C14.6148 65.4027 14.1721 64.928 13.8521 64.32C13.5321 63.712 13.3721 63.024 13.3721 62.256C13.3721 61.488 13.5268 60.8 13.8361 60.192C14.1561 59.584 14.5935 59.1093 15.1481 58.768C15.7135 58.4267 16.3535 58.256 17.0681 58.256ZM19.5481 61.584C19.4415 60.8053 19.1801 60.224 18.7641 59.84C18.3481 59.4453 17.7828 59.248 17.0681 59.248C16.3748 59.248 15.8041 59.472 15.3561 59.92C14.9188 60.3573 14.6415 60.912 14.5241 61.584H19.5481ZM25.8104 58.256C26.333 58.256 26.813 58.3627 27.2504 58.576C27.6984 58.7893 28.0504 59.104 28.3064 59.52C28.573 59.936 28.7064 60.4267 28.7064 60.992V66H27.6184V61.472C27.6184 59.9893 26.957 59.248 25.6344 59.248C24.8664 59.248 24.2904 59.52 23.9064 60.064C23.5224 60.608 23.3304 61.3387 23.3304 62.256V66H22.2424V58.512H23.3304V59.76C23.5864 59.28 23.9224 58.912 24.3384 58.656C24.765 58.3893 25.2557 58.256 25.8104 58.256ZM37.7961 54.384V66H36.7081V64.896C36.3988 65.3227 36.0201 65.6587 35.5721 65.904C35.1241 66.1387 34.6335 66.256 34.1001 66.256C33.3855 66.256 32.7455 66.0853 32.1801 65.744C31.6148 65.4027 31.1721 64.928 30.8521 64.32C30.5321 63.712 30.3721 63.0187 30.3721 62.24C30.3721 61.472 30.5268 60.7893 30.8361 60.192C31.1561 59.584 31.5935 59.1093 32.1481 58.768C32.7135 58.4267 33.3535 58.256 34.0681 58.256C34.6121 58.256 35.1081 58.3787 35.5561 58.624C36.0148 58.8587 36.3988 59.1947 36.7081 59.632V54.384H37.7961ZM34.0681 65.264C34.5801 65.264 35.0335 65.136 35.4281 64.88C35.8335 64.624 36.1481 64.2667 36.3721 63.808C36.5961 63.3493 36.7081 62.832 36.7081 62.256C36.7081 61.68 36.5961 61.1627 36.3721 60.704C36.1481 60.2453 35.8335 59.888 35.4281 59.632C35.0335 59.376 34.5801 59.248 34.0681 59.248C33.5668 59.248 33.1188 59.376 32.7241 59.632C32.3295 59.888 32.0201 60.2453 31.7961 60.704C31.5721 61.152 31.4601 61.664 31.4601 62.24C31.4601 62.8267 31.5721 63.3493 31.7961 63.808C32.0201 64.2667 32.3295 64.624 32.7241 64.88C33.1188 65.136 33.5668 65.264 34.0681 65.264ZM46.7649 58.512V66H45.6769V64.896C45.3675 65.3227 44.9889 65.6587 44.5409 65.904C44.0929 66.1387 43.6022 66.256 43.0689 66.256C42.3542 66.256 41.7142 66.0853 41.1489 65.744C40.5835 65.4027 40.1409 64.928 39.8209 64.32C39.5009 63.712 39.3409 63.0187 39.3409 62.24C39.3409 61.472 39.4955 60.7893 39.8049 60.192C40.1249 59.584 40.5622 59.1093 41.1169 58.768C41.6822 58.4267 42.3222 58.256 43.0369 58.256C43.5809 58.256 44.0769 58.3787 44.5249 58.624C44.9835 58.8587 45.3675 59.1947 45.6769 59.632V58.512H46.7649ZM43.0369 65.264C43.5489 65.264 44.0022 65.136 44.3969 64.88C44.8022 64.624 45.1169 64.2667 45.3409 63.808C45.5649 63.3493 45.6769 62.832 45.6769 62.256C45.6769 61.68 45.5649 61.1627 45.3409 60.704C45.1169 60.2453 44.8022 59.888 44.3969 59.632C44.0022 59.376 43.5489 59.248 43.0369 59.248C42.5355 59.248 42.0875 59.376 41.6929 59.632C41.2982 59.888 40.9889 60.2453 40.7649 60.704C40.5409 61.152 40.4289 61.664 40.4289 62.24C40.4289 62.8267 40.5409 63.3493 40.7649 63.808C40.9889 64.2667 41.2982 64.624 41.6929 64.88C42.0875 65.136 42.5355 65.264 43.0369 65.264ZM51.4136 66.256C50.6883 66.256 50.0483 66.1013 49.4936 65.792C48.9496 65.4827 48.5336 65.0453 48.2456 64.48L49.2216 64C49.6163 64.8427 50.3896 65.264 51.5416 65.264C52.0963 65.264 52.555 65.1627 52.9176 64.96C53.2803 64.7573 53.4616 64.4427 53.4616 64.016C53.4616 63.5787 53.3123 63.2533 53.0136 63.04C52.7256 62.8267 52.2136 62.688 51.4776 62.624C50.4536 62.5387 49.7176 62.3093 49.2696 61.936C48.8323 61.5627 48.6136 61.0667 48.6136 60.448C48.6136 59.7547 48.8643 59.216 49.3656 58.832C49.867 58.448 50.555 58.256 51.4296 58.256C52.9123 58.256 53.9203 58.8427 54.4536 60.016L53.4776 60.496C53.2963 60.0693 53.0296 59.7547 52.6776 59.552C52.3363 59.3493 51.8936 59.248 51.3496 59.248C50.795 59.248 50.3683 59.3493 50.0696 59.552C49.7816 59.7547 49.6376 60.0427 49.6376 60.416C49.6376 60.768 49.7923 61.056 50.1016 61.28C50.4216 61.4933 50.9656 61.632 51.7336 61.696C52.683 61.7813 53.387 62.016 53.8456 62.4C54.315 62.7733 54.5496 63.2693 54.5496 63.888C54.5496 64.3893 54.4056 64.8213 54.1176 65.184C53.8296 65.536 53.4456 65.8027 52.9656 65.984C52.4856 66.1653 51.9683 66.256 51.4136 66.256Z" fill="#373332"/>
<path d="M67.912 66L65 57.728H66.6L68.648 64.176L68.76 64.576L68.872 64.176L70.904 57.728H72.424L69.512 66H67.912ZM62.616 66L59.688 57.728H61.288L63.336 64.176L63.448 64.576L63.56 64.176L65.016 60.272C65.176 60.448 65.304 60.6827 65.4 60.976C65.5013 61.2693 65.5547 61.5893 65.56 61.936C65.5707 62.2827 65.5173 62.624 65.4 62.96L64.136 66H62.616ZM77.5336 66.16C76.947 66.16 76.4136 66.0507 75.9336 65.832C75.459 65.6133 75.051 65.3093 74.7096 64.92C74.3736 64.5253 74.115 64.064 73.9336 63.536C73.7523 63.0027 73.6616 62.4213 73.6616 61.792C73.6616 60.928 73.819 60.1813 74.1336 59.552C74.4536 58.9173 74.907 58.4293 75.4936 58.088C76.0803 57.7413 76.7763 57.568 77.5816 57.568C78.131 57.568 78.6163 57.6907 79.0376 57.936C79.459 58.176 79.7976 58.5067 80.0536 58.928C80.315 59.344 80.475 59.8187 80.5336 60.352C80.5976 60.88 80.5416 61.4293 80.3656 62H75.7256C75.8376 61.696 75.995 61.4427 76.1976 61.24C76.4056 61.032 76.7016 60.928 77.0856 60.928H79.1176C79.1656 60.5173 79.1176 60.1467 78.9736 59.816C78.835 59.48 78.627 59.2133 78.3496 59.016C78.0776 58.8187 77.7683 58.72 77.4216 58.72C76.9736 58.72 76.579 58.84 76.2376 59.08C75.8963 59.32 75.6296 59.672 75.4376 60.136C75.2456 60.5947 75.1496 61.152 75.1496 61.808C75.1496 62.4427 75.259 63 75.4776 63.48C75.7016 63.96 76.0056 64.336 76.3896 64.608C76.7736 64.8747 77.2083 65.008 77.6936 65.008C78.0616 65.008 78.411 64.9707 78.7416 64.896C79.0723 64.816 79.4643 64.6613 79.9176 64.432L80.3176 65.488C79.8056 65.7493 79.3096 65.9253 78.8296 66.016C78.3496 66.112 77.9176 66.16 77.5336 66.16ZM85.9008 66.16C85.3248 66.16 84.7781 66.0933 84.2608 65.96C83.7434 65.8213 83.2554 65.6213 82.7968 65.36V53.872H84.2848V64.752C84.5408 64.848 84.8128 64.9147 85.1008 64.952C85.3941 64.9893 85.6608 65.008 85.9008 65.008C86.6634 65.008 87.2634 64.7147 87.7008 64.128C88.1434 63.536 88.3648 62.768 88.3648 61.824C88.3648 61.12 88.2688 60.5387 88.0768 60.08C87.8848 59.6213 87.6154 59.2853 87.2688 59.072C86.9221 58.8533 86.5194 58.7573 86.0608 58.784C85.8208 58.8 85.5968 58.7467 85.3888 58.624C85.1861 58.496 84.9994 58.3093 84.8288 58.064C85.1114 57.9253 85.4101 57.8187 85.7248 57.744C86.0394 57.6693 86.3168 57.632 86.5568 57.632C86.9941 57.632 87.4128 57.72 87.8128 57.896C88.2181 58.072 88.5781 58.336 88.8928 58.688C89.2128 59.0347 89.4661 59.4693 89.6528 59.992C89.8394 60.5147 89.9328 61.1253 89.9328 61.824C89.9328 62.672 89.7621 63.4213 89.4208 64.072C89.0848 64.7227 88.6128 65.2347 88.0048 65.608C87.4021 65.976 86.7008 66.16 85.9008 66.16Z" fill="#36A594"/>
<circle cx="40" cy="23.25" r="3" fill="#373332"/>
<circle cx="52" cy="23.25" r="3" fill="#373332"/>
<path d="M51.0959 33.762C51.0959 33.762 49.0874 36.0133 44.617 35.4986C40.1465 34.984 39.5001 31.1566 39.5001 31.1566" stroke="#373332" stroke-width="3" stroke-linecap="round"/>
<path d="M39.5 46.25C40.6456 46.25 56.465 46.25 64.8574 46.25C65.4644 46.25 65.9255 45.7136 65.842 45.1124L61.1198 11.1124C61.0511 10.618 60.6284 10.25 60.1293 10.25H53.5" stroke="#373332" stroke-width="2" stroke-linecap="square"/>
<path d="M54 10.25H32.6943C31.7166 10.25 30.8822 10.9568 30.7215 11.9212L25.3881 43.9212C25.185 45.1403 26.125 46.25 27.3609 46.25H39" stroke="#373332" stroke-width="2" stroke-linecap="square"/>
<path fill-rule="evenodd" clip-rule="evenodd" d="M64.4203 42.1074L62.6731 29.5182L64.4384 27.6892L66.1856 40.2784L64.4203 42.1074Z" fill="#E3E817"/>
<path fill-rule="evenodd" clip-rule="evenodd" d="M62.4571 27.9182L60.71 15.329L62.4753 13.5L64.2225 26.0892L62.4571 27.9182Z" fill="#EB8C1E"/>
<path fill-rule="evenodd" clip-rule="evenodd" d="M62.9531 45.2541H62.9946H63.0492H63.1037H63.158H63.2122H63.2662H63.3201H63.3739H63.4275H63.481H63.5343H63.5875H63.6405H63.6934H63.7462H63.7988H63.8512H63.9035H63.9557H64.0077H64.0595H64.1112H64.1627H64.2141H64.2653H64.3164H64.3673H64.418H64.4686H64.5191H64.5693H64.6194H64.6693H64.7191H64.7687H64.8181H64.8615L64.6214 43.5256L66.3866 41.6968L66.8425 44.979C67.0084 46.1733 66.0895 47.2541 64.8674 47.2541H64.8181H64.7687H64.7191H64.6693H64.6194H64.5693H64.5191H64.4686H64.418H64.3673H64.3164H64.2653H64.2141H64.1627H64.1112H64.0595H64.0077H63.9557H63.9035H63.8512H63.7988H63.7462H63.6934H63.6405H63.5875H63.5343H63.481H63.4275H63.3739H63.3201H63.2662H63.2122H63.158H63.1037H63.0492H62.9946H62.9399H62.8851H62.8301H62.775H62.7197H62.6643H62.6088H62.5532H62.4974H62.4415H62.3855H62.3294H62.2731H62.2168H62.1603H62.1037H62.0469H61.9901H61.9331H61.876H61.8188H61.7615H61.7041H61.6465H61.5889H61.5311H61.4732H61.4153H61.3572H61.299H61.2407H61.1823H61.1238H61.0652H61.0227L62.9531 45.2541Z" fill="#36A594"/>
<path fill-rule="evenodd" clip-rule="evenodd" d="M39.702 4.38683C40.7504 2.15427 42.6444 0 46 0C47.9056 0 49.4075 0.594038 50.5528 1.53355C51.677 2.45571 52.3909 3.65451 52.8477 4.77986C53.3054 5.90731 53.528 7.01714 53.638 7.83294C53.6934 8.24409 53.7214 8.58879 53.7355 8.8346C53.7425 8.95769 53.7462 9.05654 53.748 9.12712C53.749 9.16243 53.7495 9.19072 53.7497 9.21149L53.75 9.23697L53.75 9.24538L53.75 9.24848L53.75 9.24975C53.75 9.25031 53.75 9.25084 52.5 9.25C51.25 9.24916 51.25 9.24963 51.25 9.25006L51.2499 9.24261C51.2498 9.2331 51.2495 9.21647 51.2489 9.19319C51.2477 9.14659 51.2451 9.07355 51.2396 8.9779C51.2286 8.78621 51.2061 8.50591 51.1604 8.16706C51.0681 7.48286 50.8855 6.59269 50.5313 5.72014C50.1763 4.84549 49.6717 4.04429 48.9673 3.46645C48.284 2.90596 47.3471 2.5 46 2.5C43.8303 2.5 42.5338 3.95137 41.7397 5.96481C41.3914 5.59858 41.0228 5.28367 40.6637 5.01662C40.3312 4.76928 40.0035 4.56029 39.702 4.38683ZM39.312 5.31715C39.2434 5.50127 39.1801 5.68392 39.1216 5.86393C39.0504 6.08322 38.9851 6.30204 38.9251 6.519C39.1624 6.66365 39.4117 6.82912 39.6637 7.01662C40.1377 7.36913 40.6282 7.80503 41.0669 8.33228C41.1467 7.92122 41.2462 7.49172 41.3701 7.05958C40.977 6.56842 40.522 6.15747 40.0669 5.819C39.8085 5.6268 39.5526 5.45998 39.312 5.31715ZM39.0669 7.819C39.7234 8.30732 40.3799 8.94652 40.8504 9.7598L40.8436 9.82158C40.7962 10.2612 40.7727 10.6259 40.7612 10.8777C40.7554 11.0034 40.7526 11.1005 40.7512 11.1641C40.7506 11.1959 40.7503 11.2193 40.7501 11.2338L40.75 11.2485L40.75 11.25C40.75 11.2497 40.75 11.2493 39.5 11.25C38.25 11.2507 38.25 11.2502 38.25 11.2498V11.2486L38.25 11.2457L38.25 11.237L38.2502 11.2089C38.2505 11.1854 38.2509 11.1527 38.2518 11.1113C38.2536 11.0284 38.257 10.9107 38.2638 10.763C38.2773 10.4679 38.3043 10.0513 38.358 9.55342C38.4199 8.98026 38.5182 8.28912 38.6758 7.54492C38.8044 7.62982 38.9353 7.72112 39.0669 7.819Z" fill="#373332"/>
</svg>
